HIERARCHY
ROOT pelvis
{
  OFFSET 0 100 0
  CHANNELS 6 Xposition Yposition Zposition Zrotation Xrotation Yrotation
  JOINT pelvis_right_femur
  {
    OFFSET -10.78128 -3.44521 -0.5502486
    CHANNELS 3 Zrotation Xrotation Yrotation
    JOINT right_femur_tibia
    {
      OFFSET -0.8047443 -44.0398 -0.1307829
      CHANNELS 3 Zrotation Xrotation Yrotation
      JOINT right_tibia_foot
      {
        OFFSET 3.006224 -47.83518 -5
        CHANNELS 3 Zrotation Xrotation Yrotation
        End Site
        {
          OFFSET 0 -5 15
        }
      }
    }
  }
  JOINT pelvis_left_femur
  {
    OFFSET 10.78128 -3.44521 -0.5502486
    CHANNELS 3 Zrotation Xrotation Yrotation
    JOINT left_femur_tibia
    {
      OFFSET 0.8047443 -44.0398 -0.1307829
      CHANNELS 3 Zrotation Xrotation Yrotation
      JOINT left_tibia_foot
      {
        OFFSET -4.370144 -48.10324 -4.275266
        CHANNELS 3 Zrotation Xrotation Yrotation
        End Site
        {
          OFFSET 0 -5 15
        }
      }
    }
  }
  JOINT pelvis_spine1
  {
    OFFSET 0 6.468898 -3.129235
    CHANNELS 3 Zrotation Xrotation Yrotation
    JOINT spine1
    {
      OFFSET 0 23.15396 4.99043
      CHANNELS 3 Zrotation Xrotation Yrotation
      JOINT spine2
      {
        OFFSET 0 20.79997 -5.064912
        CHANNELS 3 Zrotation Xrotation Yrotation
        JOINT neck
        {
          OFFSET 0 14.38658 9.616178
          CHANNELS 3 Zrotation Xrotation Yrotation
          End Site
          {
            OFFSET 0 20 0
          }
        }
      }
      JOINT right_manubrium
      {
        OFFSET -5.722621 16.35077 3.967754
        CHANNELS 3 Zrotation Xrotation Yrotation
        JOINT right_clavicle
        {
          OFFSET -13.16364 1.694482 -4.693211
          CHANNELS 3 Zrotation Xrotation Yrotation
          JOINT right_humerus
          {
            OFFSET -28.5034 -0.3100689 -2.792744
            CHANNELS 3 Zrotation Xrotation Yrotation
            JOINT right_radius
            {
              OFFSET -25.15693 0.02248979 -1.271978
              CHANNELS 3 Zrotation Xrotation Yrotation
              End Site
              {
                OFFSET -15 0 0
              }
            }
          }
        }
      }
      JOINT left_manubrium
      {
        OFFSET 5.722621 16.35077 3.967754
        CHANNELS 3 Zrotation Xrotation Yrotation
        JOINT left_clavicle
        {
          OFFSET 13.16364 1.694482 -4.693211
          CHANNELS 3 Zrotation Xrotation Yrotation
          JOINT left_humerus
          {
            OFFSET 29.39168 -1.063119 -2.237045
            CHANNELS 3 Zrotation Xrotation Yrotation
            JOINT left_radius
            {
              OFFSET 24.59957 -0.9528479 0.9047498
              CHANNELS 3 Zrotation Xrotation Yrotation
              End Site
              {
                OFFSET 15 -0 -0
              }
            }
          }
        }
      }
    }
  }
}
MOTION
Frames: 17
Frame Time: 0.0416666666667
0 103.5113 0 2.468138 0.5279157 0.1447991 3.423252 -14.67087 12.43938 -0 35.26669 -0 -3.222371 -19.30748 -3.709588 -9.060681 8.89779 -21.57792 -0 4.203141 -0 21.83929 -9.380812 29.53877 -2.561366 -2.45669 4.728574 2.576297 10.18389 -7.281665 1.970342 21.3932 6.710413 2.823026 -25.08675 10.60595 5.865008 -18.87313 11.36742 86.94202 37.87556 -18.94865 -0 0 14.15149 -6.00672 9.287825 3.489977 5.96365 -19.77619 -1.343609 -91.51882 21.45264 19.65004 0 0 -16.60784 14.6514 14.26829 -2.956667
0.4529697 103.3187 1.596493 1.958468 1.278708 0.2498203 4.367252 -17.90919 12.44644 -0 34.2609 -0 -3.270745 -17.99516 -3.345853 -8.759049 9.366342 -21.52376 -0 4.271347 -0 21.93195 -10.17745 29.97671 -2.731174 -2.493576 4.607476 2.836405 10.15937 -7.390654 1.938327 21.22569 6.976869 2.831861 -25.85437 11.02837 5.792705 -19.16586 11.4737 87.18777 38.38711 -19.22393 -0 0 13.93827 -5.351199 9.090085 3.492386 5.913513 -19.74525 -1.51062 -91.05313 21.46535 19.31803 0 0 -18.3236 15.45323 13.4679 -3.705637
0.8600102 102.9376 3.402565 1.484475 0.6807163 0.3337704 4.446945 -19.27565 10.52776 -0 33.03178 -0 -3.836127 -15.87593 -2.995434 -8.058213 10.29917 -21.63028 -0 4.257431 -0 18.0551 -12.66861 29.12433 -2.659791 -2.46386 4.64092 2.742225 10.17284 -7.35388 1.950427 21.29311 6.865552 2.823797 -25.53622 10.84838 5.823466 -19.01813 11.43783 87.10185 38.16652 -19.13527 -0 0 13.97084 -5.618594 9.175679 3.501719 5.924607 -19.75925 -1.458624 -91.20248 21.45416 19.4008 0 0 -17.67223 15.11112 13.76655 -3.386091
1.231605 102.5073 5.427754 1.013664 0.8896956 0.3667213 5.063343 -21.80703 9.879793 -0 31.71861 -0 -4.175502 -14.27873 -2.681309 -7.626694 10.87188 -21.34909 -0 4.618781 -0 16.89842 -13.91125 28.69091 -2.509971 -2.419577 4.672488 2.695156 10.20844 -7.371769 1.910432 21.35788 6.689965 2.80057 -25.20433 10.49883 5.853035 -18.77962 11.4084 87.00302 37.57864 -19.21654 -0 0 13.83978 -6.02589 9.185321 3.61455 5.928303 -19.87147 -1.441313 -91.45596 21.6204 19.58634 0 0 -16.91641 14.35279 14.05408 -2.562244
1.563967 102.0165 7.683269 0.5330365 1.218299 0.3972417 5.714742 -24.54435 9.329471 -0 30.24419 -0 -4.550723 -12.73321 -2.429635 -7.21754 11.48019 -20.95825 -0 5.16813 -0 15.64825 -15.26888 28.03786 -2.391511 -2.424858 4.750867 2.612361 10.2291 -7.360401 1.882132 21.41362 6.551467 2.795556 -24.93913 10.23184 5.876761 -18.66999 11.36031 86.87743 37.1457 -19.20486 -0 0 13.91075 -6.3671 9.193314 3.670796 5.961329 -19.96181 -1.375062 -91.78352 21.77854 19.89582 0 0 -16.15439 13.77092 14.381 -1.921652
1.872362 101.4794 10.21892 0.1029315 1.67492 0.4421756 6.433731 -27.23708 9.011392 -0 28.39551 -0 -4.854979 -11.17526 -2.14694 -6.896093 11.96164 -20.32193 -0 5.998256 -0 15.11411 -16.12297 27.38344 -2.296729 -2.451433 4.82697 2.559678 10.24174 -7.362935 1.846053 21.43963 6.458575 2.796762 -24.80896 10.03486 5.887196 -18.63538 11.32038 86.78327 36.80139 -19.23183 -0 0 13.99888 -6.606688 9.167744 3.716981 6.000675 -20.05711 -1.319352 -92.0788 21.96182 20.20961 0 0 -15.64333 13.31804 14.60571 -1.390843
2.163684 100.914 13.08396 -0.2918834 2.211176 0.5212398 7.159084 -29.75626 8.799477 -0 26.31487 -0 -5.145404 -9.594835 -1.860374 -6.624369 12.41301 -19.52605 -0 7.144106 -0 14.75754 -16.72267 26.60239 -2.227095 -2.501414 4.904798 2.517476 10.24447 -7.36824 1.81414 21.44764 6.402826 2.804639 -24.77067 9.910002 5.892229 -18.66605 11.27991 86.71342 36.56025 -19.26859 -0 0 14.13458 -6.747263 9.127227 3.724349 6.051408 -20.14401 -1.258314 -92.36338 22.14353 20.53456 0 0 -15.27439 13.01393 14.79496 -1.007813
2.447414 100.3411 16.33938 -0.6397924 2.693408 0.6391704 7.825838 -31.79828 8.563504 -0 24.09094 -0 -5.465226 -7.918278 -1.516983 -6.375228 12.81814 -18.55825 -0 8.740921 -0 14.54574 -16.89135 25.65729 -2.172951 -2.560231 4.973215 2.494232 10.24289 -7.383811 1.782687 21.44092 6.371601 2.814651 -24.803 9.829655 5.894469 -18.72655 11.24411 86.67133 36.37262 -19.3375 -0 0 14.26552 -6.813099 9.071499 3.711202 6.104268 -20.22935 -1.205896 -92.62165 22.33085 20.84208 0 0 -15.04058 12.79726 14.93955 -0.7073589
2.728121 99.80019 20.03691 -0.9594751 3.055351 0.7907784 8.403045 -33.21108 8.246754 -0 21.94509 -0 -5.873039 -6.212121 -1.132241 -6.108897 13.17829 -17.46272 -0 10.94347 -0 14.25291 -16.62926 24.46552 -2.130889 -2.626375 5.03413 2.483765 10.23784 -7.406712 1.753489 21.42458 6.357664 2.826299 -24.88463 9.783919 5.896306 -18.80765 11.21056 86.65078 36.22481 -19.43055 -0 0 14.39525 -6.818669 9.005112 3.676346 6.159544 -20.31204 -1.158513 -92.86457 22.52105 21.13769 0 0 -14.89451 12.64942 15.06115 -0.4739725
3.007897 99.34127 24.20959 -1.260385 3.184021 0.9507834 8.852747 -33.79365 7.774857 -0 20.07097 -0 -6.426444 -4.560027 -0.7118223 -5.783355 13.42627 -16.26738 -0 13.95062 -0 13.76158 -15.85586 22.97823 -2.097045 -2.694593 5.085843 2.485924 10.23141 -7.437138 1.725619 21.40128 6.355056 2.83835 -25.00196 9.760673 5.898681 -18.89732 11.1804 86.64842 36.09852 -19.54761 -0 0 14.51156 -6.779494 8.929587 3.628039 6.213958 -20.39326 -1.119284 -93.09051 22.7154 21.4157 0 0 -14.82019 12.54408 15.16095 -0.2809547
3.285266 99.02662 28.85565 -1.547593 3.005971 1.076415 9.163198 -33.41746 7.142104 -0 18.63092 -0 -7.154813 -3.123185 -0.2967672 -5.367976 13.43477 -15.02187 -0 17.92879 -0 12.98291 -14.55348 21.20158 -2.06948 -2.763503 5.129372 2.498237 10.22417 -7.473629 1.699199 21.37321 6.360318 2.850556 -25.1453 9.75392 5.902161 -18.99125 11.15307 86.66023 35.98576 -19.68404 -0 0 14.61488 -6.705223 8.846535 3.568988 6.266955 -20.47282 -1.087399 -93.30339 22.91364 21.67844 0 0 -14.79878 12.46879 15.24538 -0.1166082
3.55629 98.9176 33.92842 -1.804932 2.465105 1.110154 9.329175 -31.99621 6.373063 -0 17.67144 -0 -8.047227 -2.061811 0.0631034 -4.854046 13.00503 -13.77288 -0 22.95327 -0 11.93682 -12.74393 19.23192 -2.046484 -2.830962 5.164864 2.519546 10.21687 -7.515283 1.673871 21.3419 6.370725 2.862566 -25.30727 9.758053 5.906935 -19.08499 11.12883 86.68308 35.87942 -19.83659 -0 0 14.70258 -6.604879 8.757135 3.503635 6.317209 -20.55069 -1.063461 -93.50363 23.11561 21.92516 0 0 -14.8199 12.41161 15.31582 0.0307659
3.815083 99.06089 39.33477 -1.996027 1.560595 0.9945433 9.352199 -29.53522 5.53562 -0 17.10072 -0 -9.039122 -1.498256 0.3133867 -4.263051 11.90486 -12.56104 -0 28.90609 -0 10.73945 -10.54352 17.25447 -2.026922 -2.895971 5.193038 2.548377 10.2098 -7.561009 1.64948 21.30852 6.384495 2.874291 -25.48239 9.769481 5.913032 -19.1764 11.10752 86.71418 35.77552 -20.00163 -0 0 14.77499 -6.485136 8.662439 3.434728 6.364223 -20.6267 -1.047133 -93.69273 23.32096 22.15699 0 0 -14.87424 12.36505 15.37446 0.1682616
4.05484 99.47007 44.94813 -2.070994 0.3477515 0.6916335 9.22819 -26.1359 4.708667 -0 16.69342 -0 -10.02171 -1.457856 0.4210139 -3.640093 9.935826 -11.404 -0 35.4021 -0 9.577976 -8.167468 15.50305 -2.009834 -2.95748 5.214395 2.583584 10.2032 -7.609866 1.625788 21.27396 6.400249 2.885647 -25.66618 9.78514 5.920359 -19.26357 11.08918 86.75122 35.67116 -20.17602 -0 0 14.83193 -6.351972 8.563465 3.36511 6.407423 -20.70067 -1.038323 -93.87117 23.52916 22.37422 0 0 -14.95526 12.32279 15.4222 0.3018825
4.268917 100.1124 50.63439 -1.987219 -1.065317 0.2008469 8.951469 -21.99053 3.961646 -0 16.16984 -0 -10.86802 -1.858214 0.3912556 -3.028821 7.021853 -10.29665 -0 41.76636 -0 8.63301 -5.900354 14.18858 -1.994487 -3.014831 5.229524 2.624058 10.19716 -7.660977 1.602611 21.23895 6.417024 2.89663 -25.85509 9.80279 5.928773 -19.34537 11.0737 86.79225 35.56461 -20.3569 -0 0 14.87393 -6.210196 8.46116 3.296919 6.446523 -20.77246 -1.036701 -94.03953 23.73963 22.57752 0 0 -15.05753 12.28035 15.45995 0.4358093
4.452182 100.9053 56.28132 -1.734977 -2.546924 -0.4378641 8.531215 -17.34342 3.33532 -0 15.31515 -0 -11.47257 -2.543887 0.2683104 -2.436257 3.270235 -9.220974 -0 47.11243 -0 8.000314 -4.008905 13.43518 -1.980292 -3.06745 5.23891 2.66886 10.19173 -7.713583 1.579768 21.20402 6.434103 2.907247 -26.04623 9.820635 5.93811 -19.42091 11.06104 86.83574 35.45485 -20.54181 -0 0 14.90143 -6.063897 8.356421 3.232026 6.481273 -20.8419 -1.041984 -94.19804 23.95171 22.76727 0 0 -15.1769 12.23423 15.48823 0.573256
4.602627 101.7244 61.81774 -1.357763 -3.976743 -1.15993 8.012561 -12.44331 2.837642 -0 14.08175 -0 -11.78601 -3.360898 0.110369 -1.813017 -1.032973 -8.159031 -0 50.51669 -0 7.648226 -2.644711 13.25457 -1.96681 -3.114936 5.242993 2.717182 10.18693 -7.767041 1.557111 21.16959 6.45099 2.917525 -26.23736 9.837343 5.948212 -19.48963 11.05115 86.88044 35.34141 -20.7287 -0 0 14.91499 -5.916322 8.25004 3.171869 6.511515 -20.90886 -1.053854 -94.34687 24.16473 22.94385 0 0 -15.31003 12.18193 15.50745 0.7164311
